<svg version="1" xmlns="http://www.w3.org/2000/svg" width="682.667" height="682.667" viewBox="0 0 512.000000 512.000000"><path d="M237 1.6c-1.9.2-7.8.9-13 1.5-31.9 3.6-67.9 15.7-96.4 32.4C59.2 75.4 13.6 143 2.5 221.2 1.5 228 1 239.9 1 256.5c0 16.6.5 28.5 1.5 35.3 9.8 68.6 46.5 130.1 102.3 170.9 33.5 24.6 72.4 40.3 115.9 47 15 2.3 54.6 2.3 69.6 0 80.3-12.3 146.2-56.6 186.2-125.3 16.1-27.6 26.9-58.9 32.2-93.1 2.3-15 2.3-54.6 0-69.6-6.7-43.5-22.4-82.3-47-115.9C421 50.1 360.1 13.7 290.8 3.4 281 2 244.4.7 237 1.6zM300.9 81c11.1 5.6 12.1 23.7 2.5 43.9-3.7 7.6-18.3 29.8-29.9 45.3-3.6 4.9-6.4 8.8-6.2 8.8.2 0 4.2-1.8 8.8-3.9 22.3-10.4 41.1-15.1 63.5-15.8 18.3-.6 28.4.8 38.8 5.6 20.6 9.4 28.6 31.5 22.5 61.4-12.6 62.1-78.1 127.5-175.5 175.2-25.8 12.6-41.8 18.6-55.4 20.5-13.3 1.9-21.2-.9-23.9-8.5-2-5.8-.4-10.1 8.4-23.4 4.1-6.2 7.9-12.9 8.5-14.9 1.8-6.3 3-23 2.8-38.7-.2-13.3 1.9-48.8 5.3-92.7 1.8-22.7.3-41.6-4.1-49.8-.7-1.4-2.8-4.2-4.8-6.4-3.3-3.7-3.4-4.1-3-10.5.6-7.9 3.1-14.6 9.9-26.6 10.6-18.5 18.1-25.5 27.3-25.5 6.5 0 9-1.4 19-10.4 9.8-8.9 21.8-16.7 38.1-24.6 21.3-10.4 38.4-13.7 47.4-9z"/><path d="M260 131.7c-17.6 4.4-31.8 10.7-39.1 17.2l-4.1 3.6-.2 23.8-.2 23.9 2.4-2.9c16.9-20.6 48.6-65.5 47.1-66.7-.2-.2-2.9.3-5.9 1.1zM302.6 213.5c-19.2 3.1-39.2 9.5-53.5 17.1-18.6 9.8-28.4 18.1-32.7 27.7-2.4 5.5-2.7 7.6-3.5 24.1-2 41.4-3.1 59.6-4.4 69.1-.7 5.5-1.2 10.1-1 10.3.7.8 24-9.2 40.5-17.4 39.3-19.6 83.5-50.6 97.5-68.6 13.6-17.3 19.6-39 14-49.9-2.2-4.2-9-9.4-14.8-11.4-7.1-2.4-30-2.9-42.1-1z"/></svg>